<?xml version="1.0" standalone="no"?>
<!DOCTYPE svg PUBLIC "-//W3C//DTD SVG 20010904//EN"
 "http://www.w3.org/TR/2001/REC-SVG-20010904/DTD/svg10.dtd">
<svg version="1.0" xmlns="http://www.w3.org/2000/svg"
 width="1280.000000pt" height="714.000000pt" viewBox="0 0 1280.000000 714.000000"
 preserveAspectRatio="xMidYMid meet">

<g transform="translate(0.000000,714.000000) scale(0.100000,-0.100000)"
fill="#000000" stroke="none">
<path d="M3415 5081 c-17 -10 -38 -30 -47 -43 l-17 -26 -263 -1 -262 -1 -263
-175 -263 -176 -38 10 c-100 27 -189 -58 -163 -156 22 -82 105 -122 181 -88
l39 18 138 -63 c76 -34 185 -86 241 -114 l104 -52 -39 -26 c-21 -14 -103 -73
-183 -132 -98 -72 -149 -104 -160 -100 -79 36 -175 -18 -180 -101 -4 -60 1
-76 33 -111 40 -44 104 -56 155 -30 38 20 76 88 68 122 -5 19 2 30 46 62 29
21 121 89 205 150 83 62 158 112 166 112 8 0 101 -41 206 -92 l191 -91 0 -59
c0 -93 56 -177 142 -212 54 -23 152 -21 205 5 56 27 108 89 122 144 l11 43 97
7 97 8 128 -64 c71 -35 137 -73 147 -84 10 -11 97 -138 193 -281 l174 -261
-17 -79 c-9 -44 -22 -105 -29 -136 l-11 -57 -117 -73 c-64 -39 -143 -89 -175
-110 l-57 -39 -108 30 c-59 17 -126 35 -149 41 l-43 11 0 53 c0 52 0 53 93
155 133 149 128 137 126 265 -1 108 -1 110 25 129 138 100 -13 310 -155 214
-69 -47 -76 -140 -14 -202 l35 -34 0 -98 0 -98 -110 -124 -110 -123 0 -454 0
-454 55 0 55 0 0 331 c0 310 1 330 18 325 9 -2 79 -21 154 -41 134 -35 139
-35 170 -19 52 27 361 224 381 243 15 14 38 103 83 318 2 12 41 54 87 94 45
40 99 87 120 106 l37 34 0 224 0 224 -28 33 c-33 40 -86 109 -95 125 -4 6 -3
24 3 38 25 65 -20 144 -92 165 -43 13 -43 14 -92 129 -28 64 -69 157 -92 207
-48 104 -8 76 -308 212 -144 66 -148 69 -162 107 -37 110 -166 123 -232 25
-19 -28 -23 -43 -18 -78 l6 -44 -111 -113 -111 -114 -39 -197 c-22 -109 -40
-199 -42 -200 -1 -1 -20 -4 -41 -5 l-39 -4 -47 80 c-25 44 -81 143 -123 220
-43 77 -81 145 -85 152 -6 10 -356 140 -469 174 -18 6 -33 13 -33 17 0 4 34
28 76 55 l75 47 243 0 244 0 17 -26 c18 -27 70 -54 106 -54 40 0 90 32 109 71
25 49 25 80 0 129 -34 67 -113 90 -175 51z m950 -450 l89 -40 84 -190 85 -190
-17 -35 c-22 -48 -20 -97 7 -137 27 -41 60 -59 108 -59 32 0 41 -7 93 -72 l56
-71 -5 -184 -5 -184 -32 -27 c-18 -15 -57 -48 -86 -74 l-55 -48 -86 128 c-48
70 -94 138 -104 152 -9 14 -51 77 -93 141 l-77 115 -129 65 c-72 35 -126 69
-124 75 2 6 31 47 65 91 51 68 64 80 84 76 36 -7 94 22 117 59 64 105 -32 235
-147 200 -60 -18 -88 -62 -88 -142 -1 -65 -1 -65 -73 -161 -76 -103 -78 -104
-182 -114 l-65 -7 -25 47 c-13 26 -40 58 -61 72 -23 15 -35 30 -33 41 2 9 18
94 35 187 l32 170 100 107 c97 105 101 108 136 103 23 -4 50 1 76 13 l40 18
95 -42 c52 -23 135 -60 185 -83z m-1410 -19 l190 -67 68 -125 c38 -69 91 -162
118 -208 27 -46 49 -89 49 -96 0 -23 -38 -50 -53 -38 -7 6 -98 51 -202 100
-105 49 -221 104 -260 122 -360 169 -492 233 -503 245 -18 16 -17 16 128 115
l115 78 80 -30 c44 -16 165 -60 270 -96z m666 -565 c41 -25 62 -74 57 -134 -4
-49 -10 -61 -41 -90 -115 -105 -291 48 -204 178 42 64 126 84 188 46z"/>
<path d="M1819 4175 c-40 -22 -63 -64 -63 -116 0 -50 30 -103 63 -114 17 -5
19 -20 22 -169 3 -126 7 -167 19 -181 17 -20 152 -136 243 -207 l61 -48 203 0
203 0 0 -86 c0 -55 4 -90 13 -97 6 -7 62 -54 123 -105 l112 -92 115 0 115 0
34 -34 c19 -19 47 -38 61 -42 102 -25 189 73 158 176 -17 56 -61 85 -130 85
-50 0 -55 -2 -92 -43 l-38 -43 -98 7 -98 7 -87 71 -87 71 0 75 -1 75 111 111
112 112 51 -5 c42 -4 57 -1 85 19 67 45 75 152 16 208 -19 18 -40 25 -83 28
-51 4 -62 1 -89 -22 -36 -31 -57 -84 -49 -124 6 -24 -5 -38 -113 -139 l-119
-113 -199 0 -198 1 -121 104 -122 105 -7 140 -7 140 26 21 c35 27 56 70 56
112 0 40 -35 96 -70 114 -33 17 -99 16 -131 -2z"/>
<path d="M8753 4150 c-13 -5 -32 -24 -43 -42 -44 -70 7 -158 91 -158 33 0 47
6 75 34 40 40 44 75 14 124 -29 47 -83 64 -137 42z"/>
<path d="M8005 4118 c-3 -7 -4 -236 -3 -508 l3 -495 80 0 80 0 0 505 0 505
-78 3 c-56 2 -79 -1 -82 -10z"/>
<path d="M8360 3620 l0 -511 83 3 82 3 0 505 0 505 -82 3 -83 3 0 -511z"/>
<path d="M5450 3605 l0 -495 85 0 85 0 0 495 0 495 -85 0 -85 0 0 -495z"/>
<path d="M9085 4088 c-3 -7 -4 -229 -3 -493 l3 -480 85 0 85 0 0 210 c0 116 3
212 7 215 3 3 110 4 237 2 l231 -3 0 -215 0 -215 88 3 87 3 -1 120 c-1 66 -2
288 -3 493 l-1 372 -85 0 -85 0 0 -200 0 -200 -235 0 -235 0 -2 198 -3 197
-83 3 c-60 2 -84 -1 -87 -10z"/>
<path d="M10112 3608 l3 -493 83 -3 82 -3 0 181 0 180 105 0 105 0 47 -72 c25
-40 78 -121 117 -180 l71 -108 98 0 c53 0 97 3 97 6 0 3 -56 89 -125 191 -69
102 -124 186 -123 187 2 1 20 9 41 19 104 47 170 152 169 270 -1 129 -53 217
-160 271 -74 37 -147 46 -389 46 l-223 0 2 -492z m504 319 c133 -70 118 -241
-25 -292 -31 -11 -82 -15 -177 -15 l-134 0 0 158 c0 87 3 162 8 166 4 4 72 6
152 4 111 -3 152 -8 176 -21z"/>
<path d="M6700 3945 l0 -105 -60 0 -60 0 0 -70 0 -70 60 0 60 0 0 -201 c0
-119 5 -219 12 -247 15 -62 77 -124 141 -142 54 -14 157 -9 201 12 27 12 28
14 24 75 -2 34 -6 64 -9 67 -3 3 -25 -2 -50 -11 -53 -19 -91 -12 -124 22 -21
24 -23 36 -30 214 -4 105 -4 194 0 200 4 7 45 11 101 11 l94 0 0 70 0 70 -95
0 -95 0 0 105 0 105 -85 0 -85 0 0 -105z"/>
<path d="M6106 3830 c-27 -10 -67 -36 -88 -57 l-38 -37 0 52 0 52 -80 0 -80 0
2 -362 3 -363 83 -3 82 -3 0 229 c0 219 1 231 23 273 32 61 91 92 169 87 66
-5 91 -22 119 -83 16 -35 19 -68 19 -272 l0 -233 80 0 80 0 0 264 c0 173 -4
275 -12 297 -19 58 -66 117 -115 145 -62 37 -175 44 -247 14z"/>
<path d="M7383 3830 c-80 -26 -171 -107 -202 -179 -44 -103 -45 -251 -2 -342
34 -73 84 -123 163 -165 72 -39 74 -39 183 -39 98 0 116 3 166 26 53 25 139
92 139 109 0 4 -24 26 -54 49 l-53 41 -33 -30 c-54 -50 -89 -64 -160 -65 -87
0 -148 34 -190 108 -55 96 -68 91 233 83 158 -4 268 -3 276 3 22 15 8 148 -23
216 -33 74 -105 148 -169 176 -74 32 -191 36 -274 9z m205 -134 c15 -8 37 -25
49 -38 21 -23 53 -87 53 -108 0 -6 -64 -10 -185 -10 l-185 0 0 23 c0 34 52
107 92 128 41 22 138 25 176 5z"/>
<path d="M8720 3836 c-3 -2 -4 -167 -2 -365 l2 -361 80 0 c44 0 80 3 80 8 0 4
0 167 1 362 l0 355 -78 3 c-44 1 -81 1 -83 -2z"/>
<path d="M3426 3508 c1 -13 3 -349 3 -748 l1 -725 120 3 120 3 0 745 0 744
-123 0 c-122 0 -124 0 -121 -22z"/>
</g>
</svg>
