<?xml version="1.0" encoding="UTF-8"?>
<svg version="1.1" xmlns="http://www.w3.org/2000/svg" width="200" height="200">
<path d="M0 0 C5.754375 -0.0928125 5.754375 -0.0928125 11.625 -0.1875 C13.42251709 -0.22846802 13.42251709 -0.22846802 15.25634766 -0.27026367 C20.8901675 -0.31425572 25.20161138 -0.32804219 30 3 C33.40390898 6.6799016 34.8690782 9.26528618 35.25 14.3125 C34.97565897 18.35903026 34.20391094 20.61542248 32 24 C29.890625 25.16796875 29.890625 25.16796875 28 26 C28.78741859 27.46063143 29.5800905 28.91843173 30.375 30.375 C30.81585938 31.18710938 31.25671875 31.99921875 31.7109375 32.8359375 C32.9443893 35.10814302 32.9443893 35.10814302 35 37 C35 37.99 35 38.98 35 40 C31.51604528 40.56780751 28.46399714 40.75916338 25 40 C22.00997354 37.39883463 19.89344578 34.47340715 18 31 C18 30.34 18 29.68 18 29 C15.36 29 12.72 29 10 29 C10 32.63 10 36.26 10 40 C6.7 40 3.4 40 0 40 C0 26.8 0 13.6 0 0 Z M10 8 C10 12.29 10 16.58 10 21 C17.58549469 21.54840232 17.58549469 21.54840232 24 18 C25.33333333 15.66666667 25.33333333 15.66666667 25 13 C23.29826662 9.96144954 23.29826662 9.96144954 20 8 C16.55131328 7.57942845 13.49603088 7.76693127 10 8 Z " fill="#51C7F9" transform="translate(155,78)"/>
<path d="M0 0 C3.3 0 6.6 0 10 0 C10 4.95 10 9.9 10 15 C15.61 15 21.22 15 27 15 C27 10.05 27 5.1 27 0 C30.3 0 33.6 0 37 0 C37 13.2 37 26.4 37 40 C33.7 40 30.4 40 27 40 C27 34.72 27 29.44 27 24 C21.39 24 15.78 24 10 24 C10 29.28 10 34.56 10 40 C6.7 40 3.4 40 0 40 C0 26.8 0 13.6 0 0 Z " fill="#51C7F9" transform="translate(109,78)"/>
<path d="M0 0 C15.84210526 0 15.84210526 0 20.875 3.1875 C22.69414128 6.11833872 22.88404416 8.57930272 23 12 C20.82758621 17.5862069 20.82758621 17.5862069 18 19 C19.04539719 21.25162472 20.11156417 23.14589161 21.625 25.125 C23 27 23 27 23 29 C20.8125 29.4375 20.8125 29.4375 18 29 C15.55567293 26.48300375 13 23.60995554 13 20 C9.7 20 6.4 20 3 20 C3 22.97 3 25.94 3 29 C2.01 29 1.02 29 0 29 C0 19.43 0 9.86 0 0 Z M3 4 C3 8.29 3 12.58 3 17 C9.68573678 17.36716653 9.68573678 17.36716653 16.0625 15.8125 C18.13056148 14.10040138 18.13056148 14.10040138 19.125 11.625 C19.20513406 8.82042473 19.20513406 8.82042473 17.25 6.1875 C12.41784627 2.93508884 8.75250721 3.65346342 3 4 Z " fill="#51C8F9" transform="translate(10,116)"/>
<path d="M0 0 C2.79348323 1.2415481 4.45140815 2.32672818 6.375 4.6875 C7.33887993 8.25385575 7.023931 11.46344399 6 15 C4.10571954 17.38312703 2.69988821 18.6500559 0 20 C-4.18144011 20.39447548 -6.30946048 20.45035186 -9.875 18.125 C-12.80038857 15.19961143 -12.96503325 14.42659437 -13.3125 10.1875 C-13.28232024 6.86772673 -13.0060988 6.00955479 -11.125 3.0625 C-7.50882222 -0.44731961 -4.97588405 -0.33734807 0 0 Z M-4 5 C-5.32 5.99 -6.64 6.98 -8 8 C-7.81171228 10.44480079 -7.81171228 10.44480079 -7 13 C-5.03241727 14.36020151 -5.03241727 14.36020151 -3 15 C-1.68 14.01 -0.36 13.02 1 12 C0.81171228 9.55519921 0.81171228 9.55519921 0 7 C-1.96758273 5.63979849 -1.96758273 5.63979849 -4 5 Z " fill="#7C7C7C" transform="translate(50,88)"/>
<path d="M0 0 C2.85746217 1.26998319 4.48137263 2.2838003 6.3125 4.8125 C7.58476509 8.86061621 7.50914951 11.87987109 5.75 15.75 C3.84757178 18.19597914 2.94413861 19.10040209 0 20 C-4.23244524 20.4617213 -6.27106961 20.47538938 -9.875 18.125 C-12.80038857 15.19961143 -12.96503325 14.42659437 -13.3125 10.1875 C-13.28232024 6.86772673 -13.0060988 6.00955479 -11.125 3.0625 C-7.50882222 -0.44731961 -4.97588405 -0.33734807 0 0 Z M-4 5 C-5.32 6.32 -6.64 7.64 -8 9 C-7.21869929 11.49552484 -7.21869929 11.49552484 -6 14 C-3.10813214 15.33304698 -3.10813214 15.33304698 -0.8125 14.0625 C-0.214375 13.711875 0.38375 13.36125 1 13 C1 11.02 1 9.04 1 7 C-1.475 6.01 -1.475 6.01 -4 5 Z " fill="#7B7B7B" transform="translate(74,102)"/>
<path d="M0 0 C2.8100346 1.79363911 4.50940468 3.01880935 6 6 C6.69019608 13.01699346 6.69019608 13.01699346 3.9375 16.9375 C0.42176604 19.40599406 -1.71383323 20 -6 20 C-9.62334274 18.43537473 -12.29653659 16.59620054 -14 13 C-14.28854134 8.40031159 -13.8584693 5.06658307 -10.9375 1.4375 C-7.14389674 -0.41894415 -4.14720686 -0.85457596 0 0 Z M-8 7 C-8.41666667 9.5 -8.41666667 9.5 -8 12 C-7.34 12.66 -6.68 13.32 -6 14 C-2.90073181 13.67801034 -2.90073181 13.67801034 0 13 C0.76956136 10.65466049 0.76956136 10.65466049 1 8 C-0.14646548 6.10338257 -0.14646548 6.10338257 -2 5 C-5.18490007 4.7226499 -5.18490007 4.7226499 -8 7 Z " fill="#7C7C7C" transform="translate(50,62)"/>
<path d="M0 0 C3.16872216 0.68885264 4.96142228 2.13674555 7.15625 4.46875 C8.73080739 7.61786479 8.50424118 9.98883816 8.15625 13.46875 C5.70853556 17.47410091 4.23022557 19.13679391 -0.28125 20.53125 C-4.36942307 20.45952767 -6.46607566 19.74671642 -9.84375 17.46875 C-11.77924813 15.00538875 -11.87412929 13.23439549 -12.28125 10.09375 C-11.36288206 2.4844156 -7.28917339 -0.48594489 0 0 Z M-3.84375 5.46875 C-5.63344026 7.89547567 -5.63344026 7.89547567 -6.84375 10.46875 C-5.85375 11.78875 -4.86375 13.10875 -3.84375 14.46875 C-1.39894921 14.28046228 -1.39894921 14.28046228 1.15625 13.46875 C2.51645151 11.50116727 2.51645151 11.50116727 3.15625 9.46875 C1.93034808 7.38897703 1.93034808 7.38897703 0.15625 5.46875 C-1.16375 5.46875 -2.48375 5.46875 -3.84375 5.46875 Z " fill="#7C7C7C" transform="translate(95.84375,60.53125)"/>
<path d="M0 0 C3.23929605 2.36569115 4.81751169 5.02672899 5.5625 9 C4.85564296 12.76990419 3.364441 15.00967755 1 18 C-2.20173254 19.60086627 -5.52577059 19.49917089 -9 19 C-11.8100346 17.20636089 -13.50940468 15.98119065 -15 13 C-15.70153846 5.86769231 -15.70153846 5.86769231 -12.625 2.0625 C-8.38051418 -1.27245315 -5.16507374 -1.599889 0 0 Z M-8 5 C-10.264384 7.69155201 -10.264384 7.69155201 -9.75 10.0625 C-9.07467282 12.19476975 -9.07467282 12.19476975 -7 14 C-3.69316534 13.71016731 -3.69316534 13.71016731 -1 12 C-0.7499227 9.54190002 -0.7499227 9.54190002 -1 7 C-2.82915641 4.76154985 -2.82915641 4.76154985 -5.5 4.6875 C-6.325 4.790625 -7.15 4.89375 -8 5 Z " fill="#7D7D7D" transform="translate(75,48)"/>
<path d="M0 0 C3.0625 1.9375 3.0625 1.9375 5 5 C6.03945854 9.75058323 5.669717 12.94141507 3.0625 17.0625 C-1.04346617 19.66015206 -4.26407994 20.0638661 -9 19 C-12.37882179 16.6066679 -13.67073608 14.96721278 -15 11.0625 C-15 7.25275797 -14.033189 5.19501129 -12 2 C-7.96514506 -0.68990329 -4.73771348 -0.77993882 0 0 Z M-9 7 C-8.67801034 10.09926819 -8.67801034 10.09926819 -8 13 C-5.65466049 13.76956136 -5.65466049 13.76956136 -3 14 C-1 13 -1 13 0 11 C-0.24205349 7.68181015 -0.24205349 7.68181015 -2 5 C-5.961168 4.60909667 -5.961168 4.60909667 -9 7 Z " fill="#7D7D7D" transform="translate(99,88)"/>
<path d="M0 0 C5.53846154 3.07692308 5.53846154 3.07692308 7 6 C7 7.98 7 9.96 7 12 C1.39 12 -4.22 12 -10 12 C-7.66773907 17.11637415 -7.66773907 17.11637415 -4.1875 17.9375 C-0.68325095 18.00621077 1.76864007 17.3079314 5 16 C5 17.32 5 18.64 5 20 C0.96499935 22.69000043 -2.25875907 22.678474 -7 22 C-12.46341463 19.07317073 -12.46341463 19.07317073 -14 16 C-14.43808718 11.71180044 -14.44926618 8.05577552 -12.75 4.0625 C-9.07515304 -0.26856963 -5.58026607 -0.5772689 0 0 Z M-8.9375 5.375 C-10.18241645 6.95540186 -10.18241645 6.95540186 -10 9 C-5.71 9 -1.42 9 3 9 C1.42163702 5.31622777 1.42163702 5.31622777 0 4 C-4.74777748 3.51998164 -4.74777748 3.51998164 -8.9375 5.375 Z " fill="#51C8FA" transform="translate(96,123)"/>
<path d="M0 0 C5.53846154 3.07692308 5.53846154 3.07692308 7 6 C7.53118252 10.91996928 7.75105553 14.77327597 5.125 19.0625 C1.54505271 22.32656959 -1.05885797 22.27898575 -5.7421875 22.21875 C-8.83708155 21.91889867 -10.63917422 21.00312491 -13 19 C-15.31037033 16.02952386 -15.47390986 12.74827277 -15.390625 9.03515625 C-14.68178128 5.34208047 -12.68861189 3.56356018 -10 1 C-6.38069302 -0.20643566 -3.80768995 -0.32268559 0 0 Z M-9.4375 5.625 C-11.49791771 8.75683492 -11.6767545 10.31544773 -11 14 C-9.02033737 17.06307631 -9.02033737 17.06307631 -6 19 C-2.79268852 19 -0.8994965 18.50971468 1.875 16.9375 C3.71730752 13.76463704 3.52772961 10.56774951 3 7 C2.10242444 4.85219923 2.10242444 4.85219923 0 4 C-3.93094707 3.49969765 -6.1005787 3.4003858 -9.4375 5.625 Z " fill="#51C7F9" transform="translate(51,123)"/>
<path d="M0 0 C1.32 0 2.64 0 4 0 C6.31 4.95 8.62 9.9 11 15 C13.64 10.05 16.28 5.1 19 0 C19.99 0 20.98 0 22 0 C21.02265045 5.80932923 18.60548489 10.79090457 16.1875 16.125 C15.74857422 17.12660156 15.30964844 18.12820312 14.85742188 19.16015625 C14.42365234 20.12050781 13.98988281 21.08085937 13.54296875 22.0703125 C13.15133545 22.94445801 12.75970215 23.81860352 12.35620117 24.71923828 C10.84753093 27.25641153 9.52938211 28.500141 7 30 C3.88810534 30.24895157 1.80915474 30.40457737 -1 29 C-0.67 27.68 -0.34 26.36 0 25 C2.31 25.33 4.62 25.66 7 26 C8.81543623 20.0214168 6.7919896 16.54139 4.0625 11.3125 C3.29841311 9.81111391 2.53907893 8.30729695 1.78515625 6.80078125 C1.44363525 6.14247314 1.10211426 5.48416504 0.75024414 4.8059082 C0 3 0 3 0 0 Z " fill="#51C7F8" transform="translate(59,123)"/>
<path d="M0 0 C3.65617562 0.3046813 4.7463712 0.70289198 7.1875 3.5625 C8.0846875 4.7690625 8.0846875 4.7690625 9 6 C9.66 6 10.32 6 11 6 C11.78375 5.01 12.5675 4.02 13.375 3 C14.674375 1.515 14.674375 1.515 16 0 C17.32 0 18.64 0 20 0 C18.22054913 4.04420651 15.60470327 7.46078487 13 11 C13.5053125 11.62648437 14.010625 12.25296875 14.53125 12.8984375 C15.1809375 13.71570313 15.830625 14.53296875 16.5 15.375 C17.47453125 16.59316406 17.47453125 16.59316406 18.46875 17.8359375 C20 20 20 20 20 22 C17.29068581 21.84518205 15.53415961 21.51827919 13.5546875 19.59765625 C12.32320358 18.10228292 11.1570163 16.5537076 10 15 C9.62488281 15.5053125 9.24976562 16.010625 8.86328125 16.53125 C4.63121784 21.90394511 4.63121784 21.90394511 1.125 22.4375 C0.42375 22.293125 -0.2775 22.14875 -1 22 C2.83471074 16.18181818 2.83471074 16.18181818 4.875 13.9375 C6.29331756 12.00328885 6.29331756 12.00328885 5.4375 9.5625 C3.87849389 6.78340216 2.00337422 4.4708282 0 2 C0 1.34 0 0.68 0 0 Z " fill="#50C8F8" transform="translate(105,123)"/>
<path d="M0 0 C1.67542976 0.28604898 3.34385343 0.61781233 5 1 C5.6875 2.8125 5.6875 2.8125 6 5 C4.5625 6.75 4.5625 6.75 3 8 C0.525 7.01 0.525 7.01 -2 6 C-1.125 1.125 -1.125 1.125 0 0 Z " fill="#52C7FA" transform="translate(64,88)"/>
<path d="M0 0 C2.5 0.125 2.5 0.125 3.5 1.125 C3.625 3.625 3.625 3.625 3.5 6.125 C2.5 7.125 2.5 7.125 0.0625 7.3125 C-2.5 7.125 -2.5 7.125 -4.5 5.125 C-3.7519084 0.18759542 -3.7519084 0.18759542 0 0 Z " fill="#4FCAF8" transform="translate(65.5,71.875)"/>
<path d="M0 0 C2.625 0.375 2.625 0.375 5 1 C6.125 4.75 6.125 4.75 5 7 C3.02 7 1.04 7 -1 7 C-1.625 4.625 -1.625 4.625 -2 2 C-1.34 1.34 -0.68 0.68 0 0 Z " fill="#51C7FA" transform="translate(59,80)"/>
<path d="M0 0 C1.67542976 0.28604898 3.34385343 0.61781233 5 1 C5 2.98 5 4.96 5 7 C2.625 7.625 2.625 7.625 0 8 C-0.66 7.34 -1.32 6.68 -2 6 C-1.44444444 1.44444444 -1.44444444 1.44444444 0 0 Z " fill="#52C8F6" transform="translate(73,71)"/>
<path d="M0 0 C2.5 0.125 2.5 0.125 3.5 1.125 C3.625 3.625 3.625 3.625 3.5 6.125 C2.5 7.125 2.5 7.125 0 7.25 C-2.5 7.125 -2.5 7.125 -3.5 6.125 C-3.625 3.625 -3.625 3.625 -3.5 1.125 C-2.5 0.125 -2.5 0.125 0 0 Z " fill="#51C8F9" transform="translate(75.5,87.875)"/>
<path d="M0 0 C2.5 0.125 2.5 0.125 3.5 1.125 C3.625 3.625 3.625 3.625 3.5 6.125 C2.5 7.125 2.5 7.125 0 7.25 C-2.5 7.125 -2.5 7.125 -3.5 6.125 C-3.625 3.625 -3.625 3.625 -3.5 1.125 C-2.5 0.125 -2.5 0.125 0 0 Z " fill="#50C7FA" transform="translate(79.5,79.875)"/>
</svg>
